<?xml version="1.0" encoding="utf-8" standalone="no"?>
<!DOCTYPE svg PUBLIC "-//W3C//DTD SVG 1.1//EN"
  "http://www.w3.org/Graphics/SVG/1.1/DTD/svg11.dtd">
<!-- Created with matplotlib (http://matplotlib.org/) -->
<svg height="288pt" version="1.1" viewBox="0 0 432 288" width="432pt" xmlns="http://www.w3.org/2000/svg" xmlns:xlink="http://www.w3.org/1999/xlink">
 <defs>
  <style type="text/css">
*{stroke-linecap:butt;stroke-linejoin:round;}
  </style>
 </defs>
 <g id="figure_1">
  <g id="patch_1">
   <path d="M 0 288 
L 432 288 
L 432 0 
L 0 0 
z
" style="fill:#ffffff;"/>
  </g>
  <g id="axes_1">
   <g id="patch_2">
    <path d="M 54 252 
L 388.8 252 
L 388.8 34.56 
L 54 34.56 
z
" style="fill:#ffffff;"/>
   </g>
   <g id="matplotlib.axis_1">
    <g id="xtick_1">
     <g id="line2d_1">
      <defs>
       <path d="M 0 0 
L 0 3.5 
" id="m823fe73137" style="stroke:#000000;stroke-width:0.8;"/>
      </defs>
      <g>
       <use style="stroke:#000000;stroke-width:0.8;" x="59.621997" xlink:href="#m823fe73137" y="252"/>
      </g>
     </g>
     <g id="text_1">
      <!-- 300 -->
      <defs>
       <path d="M 40.578125 39.3125 
Q 47.65625 37.796875 51.625 33 
Q 55.609375 28.21875 55.609375 21.1875 
Q 55.609375 10.40625 48.1875 4.484375 
Q 40.765625 -1.421875 27.09375 -1.421875 
Q 22.515625 -1.421875 17.65625 -0.515625 
Q 12.796875 0.390625 7.625 2.203125 
L 7.625 11.71875 
Q 11.71875 9.328125 16.59375 8.109375 
Q 21.484375 6.890625 26.8125 6.890625 
Q 36.078125 6.890625 40.9375 10.546875 
Q 45.796875 14.203125 45.796875 21.1875 
Q 45.796875 27.640625 41.28125 31.265625 
Q 36.765625 34.90625 28.71875 34.90625 
L 20.21875 34.90625 
L 20.21875 43.015625 
L 29.109375 43.015625 
Q 36.375 43.015625 40.234375 45.921875 
Q 44.09375 48.828125 44.09375 54.296875 
Q 44.09375 59.90625 40.109375 62.90625 
Q 36.140625 65.921875 28.71875 65.921875 
Q 24.65625 65.921875 20.015625 65.03125 
Q 15.375 64.15625 9.8125 62.3125 
L 9.8125 71.09375 
Q 15.4375 72.65625 20.34375 73.4375 
Q 25.25 74.21875 29.59375 74.21875 
Q 40.828125 74.21875 47.359375 69.109375 
Q 53.90625 64.015625 53.90625 55.328125 
Q 53.90625 49.265625 50.4375 45.09375 
Q 46.96875 40.921875 40.578125 39.3125 
" id="DejaVuSans-33"/>
       <path d="M 31.78125 66.40625 
Q 24.171875 66.40625 20.328125 58.90625 
Q 16.5 51.421875 16.5 36.375 
Q 16.5 21.390625 20.328125 13.890625 
Q 24.171875 6.390625 31.78125 6.390625 
Q 39.453125 6.390625 43.28125 13.890625 
Q 47.125 21.390625 47.125 36.375 
Q 47.125 51.421875 43.28125 58.90625 
Q 39.453125 66.40625 31.78125 66.40625 
M 31.78125 74.21875 
Q 44.046875 74.21875 50.515625 64.515625 
Q 56.984375 54.828125 56.984375 36.375 
Q 56.984375 17.96875 50.515625 8.265625 
Q 44.046875 -1.421875 31.78125 -1.421875 
Q 19.53125 -1.421875 13.0625 8.265625 
Q 6.59375 17.96875 6.59375 36.375 
Q 6.59375 54.828125 13.0625 64.515625 
Q 19.53125 74.21875 31.78125 74.21875 
" id="DejaVuSans-30"/>
      </defs>
      <g transform="translate(50.078247 266.598437)scale(0.1 -0.1)">
       <use xlink:href="#DejaVuSans-33"/>
       <use x="63.623047" xlink:href="#DejaVuSans-30"/>
       <use x="127.246094" xlink:href="#DejaVuSans-30"/>
      </g>
     </g>
    </g>
    <g id="xtick_2">
     <g id="line2d_2">
      <g>
       <use style="stroke:#000000;stroke-width:0.8;" x="113.135485" xlink:href="#m823fe73137" y="252"/>
      </g>
     </g>
     <g id="text_2">
      <!-- 400 -->
      <defs>
       <path d="M 37.796875 64.3125 
L 12.890625 25.390625 
L 37.796875 25.390625 
z
M 35.203125 72.90625 
L 47.609375 72.90625 
L 47.609375 25.390625 
L 58.015625 25.390625 
L 58.015625 17.1875 
L 47.609375 17.1875 
L 47.609375 0 
L 37.796875 0 
L 37.796875 17.1875 
L 4.890625 17.1875 
L 4.890625 26.703125 
z
" id="DejaVuSans-34"/>
      </defs>
      <g transform="translate(103.591735 266.598437)scale(0.1 -0.1)">
       <use xlink:href="#DejaVuSans-34"/>
       <use x="63.623047" xlink:href="#DejaVuSans-30"/>
       <use x="127.246094" xlink:href="#DejaVuSans-30"/>
      </g>
     </g>
    </g>
    <g id="xtick_3">
     <g id="line2d_3">
      <g>
       <use style="stroke:#000000;stroke-width:0.8;" x="166.648973" xlink:href="#m823fe73137" y="252"/>
      </g>
     </g>
     <g id="text_3">
      <!-- 500 -->
      <defs>
       <path d="M 10.796875 72.90625 
L 49.515625 72.90625 
L 49.515625 64.59375 
L 19.828125 64.59375 
L 19.828125 46.734375 
Q 21.96875 47.46875 24.109375 47.828125 
Q 26.265625 48.1875 28.421875 48.1875 
Q 40.625 48.1875 47.75 41.5 
Q 54.890625 34.8125 54.890625 23.390625 
Q 54.890625 11.625 47.5625 5.09375 
Q 40.234375 -1.421875 26.90625 -1.421875 
Q 22.3125 -1.421875 17.546875 -0.640625 
Q 12.796875 0.140625 7.71875 1.703125 
L 7.71875 11.625 
Q 12.109375 9.234375 16.796875 8.0625 
Q 21.484375 6.890625 26.703125 6.890625 
Q 35.15625 6.890625 40.078125 11.328125 
Q 45.015625 15.765625 45.015625 23.390625 
Q 45.015625 31 40.078125 35.4375 
Q 35.15625 39.890625 26.703125 39.890625 
Q 22.75 39.890625 18.8125 39.015625 
Q 14.890625 38.140625 10.796875 36.28125 
z
" id="DejaVuSans-35"/>
      </defs>
      <g transform="translate(157.105223 266.598437)scale(0.1 -0.1)">
       <use xlink:href="#DejaVuSans-35"/>
       <use x="63.623047" xlink:href="#DejaVuSans-30"/>
       <use x="127.246094" xlink:href="#DejaVuSans-30"/>
      </g>
     </g>
    </g>
    <g id="xtick_4">
     <g id="line2d_4">
      <g>
       <use style="stroke:#000000;stroke-width:0.8;" x="220.162461" xlink:href="#m823fe73137" y="252"/>
      </g>
     </g>
     <g id="text_4">
      <!-- 600 -->
      <defs>
       <path d="M 33.015625 40.375 
Q 26.375 40.375 22.484375 35.828125 
Q 18.609375 31.296875 18.609375 23.390625 
Q 18.609375 15.53125 22.484375 10.953125 
Q 26.375 6.390625 33.015625 6.390625 
Q 39.65625 6.390625 43.53125 10.953125 
Q 47.40625 15.53125 47.40625 23.390625 
Q 47.40625 31.296875 43.53125 35.828125 
Q 39.65625 40.375 33.015625 40.375 
M 52.59375 71.296875 
L 52.59375 62.3125 
Q 48.875 64.0625 45.09375 64.984375 
Q 41.3125 65.921875 37.59375 65.921875 
Q 27.828125 65.921875 22.671875 59.328125 
Q 17.53125 52.734375 16.796875 39.40625 
Q 19.671875 43.65625 24.015625 45.921875 
Q 28.375 48.1875 33.59375 48.1875 
Q 44.578125 48.1875 50.953125 41.515625 
Q 57.328125 34.859375 57.328125 23.390625 
Q 57.328125 12.15625 50.6875 5.359375 
Q 44.046875 -1.421875 33.015625 -1.421875 
Q 20.359375 -1.421875 13.671875 8.265625 
Q 6.984375 17.96875 6.984375 36.375 
Q 6.984375 53.65625 15.1875 63.9375 
Q 23.390625 74.21875 37.203125 74.21875 
Q 40.921875 74.21875 44.703125 73.484375 
Q 48.484375 72.75 52.59375 71.296875 
" id="DejaVuSans-36"/>
      </defs>
      <g transform="translate(210.618711 266.598437)scale(0.1 -0.1)">
       <use xlink:href="#DejaVuSans-36"/>
       <use x="63.623047" xlink:href="#DejaVuSans-30"/>
       <use x="127.246094" xlink:href="#DejaVuSans-30"/>
      </g>
     </g>
    </g>
    <g id="xtick_5">
     <g id="line2d_5">
      <g>
       <use style="stroke:#000000;stroke-width:0.8;" x="273.675949" xlink:href="#m823fe73137" y="252"/>
      </g>
     </g>
     <g id="text_5">
      <!-- 700 -->
      <defs>
       <path d="M 8.203125 72.90625 
L 55.078125 72.90625 
L 55.078125 68.703125 
L 28.609375 0 
L 18.3125 0 
L 43.21875 64.59375 
L 8.203125 64.59375 
z
" id="DejaVuSans-37"/>
      </defs>
      <g transform="translate(264.132199 266.598437)scale(0.1 -0.1)">
       <use xlink:href="#DejaVuSans-37"/>
       <use x="63.623047" xlink:href="#DejaVuSans-30"/>
       <use x="127.246094" xlink:href="#DejaVuSans-30"/>
      </g>
     </g>
    </g>
    <g id="xtick_6">
     <g id="line2d_6">
      <g>
       <use style="stroke:#000000;stroke-width:0.8;" x="327.189436" xlink:href="#m823fe73137" y="252"/>
      </g>
     </g>
     <g id="text_6">
      <!-- 800 -->
      <defs>
       <path d="M 31.78125 34.625 
Q 24.75 34.625 20.71875 30.859375 
Q 16.703125 27.09375 16.703125 20.515625 
Q 16.703125 13.921875 20.71875 10.15625 
Q 24.75 6.390625 31.78125 6.390625 
Q 38.8125 6.390625 42.859375 10.171875 
Q 46.921875 13.96875 46.921875 20.515625 
Q 46.921875 27.09375 42.890625 30.859375 
Q 38.875 34.625 31.78125 34.625 
M 21.921875 38.8125 
Q 15.578125 40.375 12.03125 44.71875 
Q 8.5 49.078125 8.5 55.328125 
Q 8.5 64.0625 14.71875 69.140625 
Q 20.953125 74.21875 31.78125 74.21875 
Q 42.671875 74.21875 48.875 69.140625 
Q 55.078125 64.0625 55.078125 55.328125 
Q 55.078125 49.078125 51.53125 44.71875 
Q 48 40.375 41.703125 38.8125 
Q 48.828125 37.15625 52.796875 32.3125 
Q 56.78125 27.484375 56.78125 20.515625 
Q 56.78125 9.90625 50.3125 4.234375 
Q 43.84375 -1.421875 31.78125 -1.421875 
Q 19.734375 -1.421875 13.25 4.234375 
Q 6.78125 9.90625 6.78125 20.515625 
Q 6.78125 27.484375 10.78125 32.3125 
Q 14.796875 37.15625 21.921875 38.8125 
M 18.3125 54.390625 
Q 18.3125 48.734375 21.84375 45.5625 
Q 25.390625 42.390625 31.78125 42.390625 
Q 38.140625 42.390625 41.71875 45.5625 
Q 45.3125 48.734375 45.3125 54.390625 
Q 45.3125 60.0625 41.71875 63.234375 
Q 38.140625 66.40625 31.78125 66.40625 
Q 25.390625 66.40625 21.84375 63.234375 
Q 18.3125 60.0625 18.3125 54.390625 
" id="DejaVuSans-38"/>
      </defs>
      <g transform="translate(317.645686 266.598437)scale(0.1 -0.1)">
       <use xlink:href="#DejaVuSans-38"/>
       <use x="63.623047" xlink:href="#DejaVuSans-30"/>
       <use x="127.246094" xlink:href="#DejaVuSans-30"/>
      </g>
     </g>
    </g>
    <g id="xtick_7">
     <g id="line2d_7">
      <g>
       <use style="stroke:#000000;stroke-width:0.8;" x="380.702924" xlink:href="#m823fe73137" y="252"/>
      </g>
     </g>
     <g id="text_7">
      <!-- 900 -->
      <defs>
       <path d="M 10.984375 1.515625 
L 10.984375 10.5 
Q 14.703125 8.734375 18.5 7.8125 
Q 22.3125 6.890625 25.984375 6.890625 
Q 35.75 6.890625 40.890625 13.453125 
Q 46.046875 20.015625 46.78125 33.40625 
Q 43.953125 29.203125 39.59375 26.953125 
Q 35.25 24.703125 29.984375 24.703125 
Q 19.046875 24.703125 12.671875 31.3125 
Q 6.296875 37.9375 6.296875 49.421875 
Q 6.296875 60.640625 12.9375 67.421875 
Q 19.578125 74.21875 30.609375 74.21875 
Q 43.265625 74.21875 49.921875 64.515625 
Q 56.59375 54.828125 56.59375 36.375 
Q 56.59375 19.140625 48.40625 8.859375 
Q 40.234375 -1.421875 26.421875 -1.421875 
Q 22.703125 -1.421875 18.890625 -0.6875 
Q 15.09375 0.046875 10.984375 1.515625 
M 30.609375 32.421875 
Q 37.25 32.421875 41.125 36.953125 
Q 45.015625 41.5 45.015625 49.421875 
Q 45.015625 57.28125 41.125 61.84375 
Q 37.25 66.40625 30.609375 66.40625 
Q 23.96875 66.40625 20.09375 61.84375 
Q 16.21875 57.28125 16.21875 49.421875 
Q 16.21875 41.5 20.09375 36.953125 
Q 23.96875 32.421875 30.609375 32.421875 
" id="DejaVuSans-39"/>
      </defs>
      <g transform="translate(371.159174 266.598437)scale(0.1 -0.1)">
       <use xlink:href="#DejaVuSans-39"/>
       <use x="63.623047" xlink:href="#DejaVuSans-30"/>
       <use x="127.246094" xlink:href="#DejaVuSans-30"/>
      </g>
     </g>
    </g>
    <g id="text_8">
     <!-- nm -->
     <defs>
      <path d="M 54.890625 33.015625 
L 54.890625 0 
L 45.90625 0 
L 45.90625 32.71875 
Q 45.90625 40.484375 42.875 44.328125 
Q 39.84375 48.1875 33.796875 48.1875 
Q 26.515625 48.1875 22.3125 43.546875 
Q 18.109375 38.921875 18.109375 30.90625 
L 18.109375 0 
L 9.078125 0 
L 9.078125 54.6875 
L 18.109375 54.6875 
L 18.109375 46.1875 
Q 21.34375 51.125 25.703125 53.5625 
Q 30.078125 56 35.796875 56 
Q 45.21875 56 50.046875 50.171875 
Q 54.890625 44.34375 54.890625 33.015625 
" id="DejaVuSans-6e"/>
      <path d="M 52 44.1875 
Q 55.375 50.25 60.0625 53.125 
Q 64.75 56 71.09375 56 
Q 79.640625 56 84.28125 50.015625 
Q 88.921875 44.046875 88.921875 33.015625 
L 88.921875 0 
L 79.890625 0 
L 79.890625 32.71875 
Q 79.890625 40.578125 77.09375 44.375 
Q 74.3125 48.1875 68.609375 48.1875 
Q 61.625 48.1875 57.5625 43.546875 
Q 53.515625 38.921875 53.515625 30.90625 
L 53.515625 0 
L 44.484375 0 
L 44.484375 32.71875 
Q 44.484375 40.625 41.703125 44.40625 
Q 38.921875 48.1875 33.109375 48.1875 
Q 26.21875 48.1875 22.15625 43.53125 
Q 18.109375 38.875 18.109375 30.90625 
L 18.109375 0 
L 9.078125 0 
L 9.078125 54.6875 
L 18.109375 54.6875 
L 18.109375 46.1875 
Q 21.1875 51.21875 25.484375 53.609375 
Q 29.78125 56 35.6875 56 
Q 41.65625 56 45.828125 52.96875 
Q 50 49.953125 52 44.1875 
" id="DejaVuSans-6d"/>
     </defs>
     <g transform="translate(213.360938 280.276563)scale(0.1 -0.1)">
      <use xlink:href="#DejaVuSans-6e"/>
      <use x="63.378906" xlink:href="#DejaVuSans-6d"/>
     </g>
    </g>
   </g>
   <g id="matplotlib.axis_2">
    <g id="ytick_1">
     <g id="line2d_8">
      <defs>
       <path d="M 0 0 
L -3.5 0 
" id="mef9bba50f6" style="stroke:#000000;stroke-width:0.8;"/>
      </defs>
      <g>
       <use style="stroke:#000000;stroke-width:0.8;" x="54" xlink:href="#mef9bba50f6" y="240.610893"/>
      </g>
     </g>
     <g id="text_9">
      <!-- −0.1 -->
      <defs>
       <path d="M 10.59375 35.5 
L 73.1875 35.5 
L 73.1875 27.203125 
L 10.59375 27.203125 
z
" id="DejaVuSans-2212"/>
       <path d="M 10.6875 12.40625 
L 21 12.40625 
L 21 0 
L 10.6875 0 
z
" id="DejaVuSans-2e"/>
       <path d="M 12.40625 8.296875 
L 28.515625 8.296875 
L 28.515625 63.921875 
L 10.984375 60.40625 
L 10.984375 69.390625 
L 28.421875 72.90625 
L 38.28125 72.90625 
L 38.28125 8.296875 
L 54.390625 8.296875 
L 54.390625 0 
L 12.40625 0 
z
" id="DejaVuSans-31"/>
      </defs>
      <g transform="translate(22.717187 244.410111)scale(0.1 -0.1)">
       <use xlink:href="#DejaVuSans-2212"/>
       <use x="83.789062" xlink:href="#DejaVuSans-30"/>
       <use x="147.412109" xlink:href="#DejaVuSans-2e"/>
       <use x="179.199219" xlink:href="#DejaVuSans-31"/>
      </g>
     </g>
    </g>
    <g id="ytick_2">
     <g id="line2d_9">
      <g>
       <use style="stroke:#000000;stroke-width:0.8;" x="54" xlink:href="#mef9bba50f6" y="211.556767"/>
      </g>
     </g>
     <g id="text_10">
      <!-- 0.0 -->
      <g transform="translate(31.096875 215.355986)scale(0.1 -0.1)">
       <use xlink:href="#DejaVuSans-30"/>
       <use x="63.623047" xlink:href="#DejaVuSans-2e"/>
       <use x="95.410156" xlink:href="#DejaVuSans-30"/>
      </g>
     </g>
    </g>
    <g id="ytick_3">
     <g id="line2d_10">
      <g>
       <use style="stroke:#000000;stroke-width:0.8;" x="54" xlink:href="#mef9bba50f6" y="182.502642"/>
      </g>
     </g>
     <g id="text_11">
      <!-- 0.1 -->
      <g transform="translate(31.096875 186.301861)scale(0.1 -0.1)">
       <use xlink:href="#DejaVuSans-30"/>
       <use x="63.623047" xlink:href="#DejaVuSans-2e"/>
       <use x="95.410156" xlink:href="#DejaVuSans-31"/>
      </g>
     </g>
    </g>
    <g id="ytick_4">
     <g id="line2d_11">
      <g>
       <use style="stroke:#000000;stroke-width:0.8;" x="54" xlink:href="#mef9bba50f6" y="153.448517"/>
      </g>
     </g>
     <g id="text_12">
      <!-- 0.2 -->
      <defs>
       <path d="M 19.1875 8.296875 
L 53.609375 8.296875 
L 53.609375 0 
L 7.328125 0 
L 7.328125 8.296875 
Q 12.9375 14.109375 22.625 23.890625 
Q 32.328125 33.6875 34.8125 36.53125 
Q 39.546875 41.84375 41.421875 45.53125 
Q 43.3125 49.21875 43.3125 52.78125 
Q 43.3125 58.59375 39.234375 62.25 
Q 35.15625 65.921875 28.609375 65.921875 
Q 23.96875 65.921875 18.8125 64.3125 
Q 13.671875 62.703125 7.8125 59.421875 
L 7.8125 69.390625 
Q 13.765625 71.78125 18.9375 73 
Q 24.125 74.21875 28.421875 74.21875 
Q 39.75 74.21875 46.484375 68.546875 
Q 53.21875 62.890625 53.21875 53.421875 
Q 53.21875 48.921875 51.53125 44.890625 
Q 49.859375 40.875 45.40625 35.40625 
Q 44.1875 33.984375 37.640625 27.21875 
Q 31.109375 20.453125 19.1875 8.296875 
" id="DejaVuSans-32"/>
      </defs>
      <g transform="translate(31.096875 157.247735)scale(0.1 -0.1)">
       <use xlink:href="#DejaVuSans-30"/>
       <use x="63.623047" xlink:href="#DejaVuSans-2e"/>
       <use x="95.410156" xlink:href="#DejaVuSans-32"/>
      </g>
     </g>
    </g>
    <g id="ytick_5">
     <g id="line2d_12">
      <g>
       <use style="stroke:#000000;stroke-width:0.8;" x="54" xlink:href="#mef9bba50f6" y="124.394391"/>
      </g>
     </g>
     <g id="text_13">
      <!-- 0.3 -->
      <g transform="translate(31.096875 128.19361)scale(0.1 -0.1)">
       <use xlink:href="#DejaVuSans-30"/>
       <use x="63.623047" xlink:href="#DejaVuSans-2e"/>
       <use x="95.410156" xlink:href="#DejaVuSans-33"/>
      </g>
     </g>
    </g>
    <g id="ytick_6">
     <g id="line2d_13">
      <g>
       <use style="stroke:#000000;stroke-width:0.8;" x="54" xlink:href="#mef9bba50f6" y="95.340266"/>
      </g>
     </g>
     <g id="text_14">
      <!-- 0.4 -->
      <g transform="translate(31.096875 99.139485)scale(0.1 -0.1)">
       <use xlink:href="#DejaVuSans-30"/>
       <use x="63.623047" xlink:href="#DejaVuSans-2e"/>
       <use x="95.410156" xlink:href="#DejaVuSans-34"/>
      </g>
     </g>
    </g>
    <g id="ytick_7">
     <g id="line2d_14">
      <g>
       <use style="stroke:#000000;stroke-width:0.8;" x="54" xlink:href="#mef9bba50f6" y="66.286141"/>
      </g>
     </g>
     <g id="text_15">
      <!-- 0.5 -->
      <g transform="translate(31.096875 70.085359)scale(0.1 -0.1)">
       <use xlink:href="#DejaVuSans-30"/>
       <use x="63.623047" xlink:href="#DejaVuSans-2e"/>
       <use x="95.410156" xlink:href="#DejaVuSans-35"/>
      </g>
     </g>
    </g>
    <g id="ytick_8">
     <g id="line2d_15">
      <g>
       <use style="stroke:#000000;stroke-width:0.8;" x="54" xlink:href="#mef9bba50f6" y="37.232015"/>
      </g>
     </g>
     <g id="text_16">
      <!-- 0.6 -->
      <g transform="translate(31.096875 41.031234)scale(0.1 -0.1)">
       <use xlink:href="#DejaVuSans-30"/>
       <use x="63.623047" xlink:href="#DejaVuSans-2e"/>
       <use x="95.410156" xlink:href="#DejaVuSans-36"/>
      </g>
     </g>
    </g>
    <g id="text_17">
     <!-- Absorbance -->
     <defs>
      <path d="M 34.1875 63.1875 
L 20.796875 26.90625 
L 47.609375 26.90625 
z
M 28.609375 72.90625 
L 39.796875 72.90625 
L 67.578125 0 
L 57.328125 0 
L 50.6875 18.703125 
L 17.828125 18.703125 
L 11.1875 0 
L 0.78125 0 
z
" id="DejaVuSans-41"/>
      <path d="M 48.6875 27.296875 
Q 48.6875 37.203125 44.609375 42.84375 
Q 40.53125 48.484375 33.40625 48.484375 
Q 26.265625 48.484375 22.1875 42.84375 
Q 18.109375 37.203125 18.109375 27.296875 
Q 18.109375 17.390625 22.1875 11.75 
Q 26.265625 6.109375 33.40625 6.109375 
Q 40.53125 6.109375 44.609375 11.75 
Q 48.6875 17.390625 48.6875 27.296875 
M 18.109375 46.390625 
Q 20.953125 51.265625 25.265625 53.625 
Q 29.59375 56 35.59375 56 
Q 45.5625 56 51.78125 48.09375 
Q 58.015625 40.1875 58.015625 27.296875 
Q 58.015625 14.40625 51.78125 6.484375 
Q 45.5625 -1.421875 35.59375 -1.421875 
Q 29.59375 -1.421875 25.265625 0.953125 
Q 20.953125 3.328125 18.109375 8.203125 
L 18.109375 0 
L 9.078125 0 
L 9.078125 75.984375 
L 18.109375 75.984375 
z
" id="DejaVuSans-62"/>
      <path d="M 44.28125 53.078125 
L 44.28125 44.578125 
Q 40.484375 46.53125 36.375 47.5 
Q 32.28125 48.484375 27.875 48.484375 
Q 21.1875 48.484375 17.84375 46.4375 
Q 14.5 44.390625 14.5 40.28125 
Q 14.5 37.15625 16.890625 35.375 
Q 19.28125 33.59375 26.515625 31.984375 
L 29.59375 31.296875 
Q 39.15625 29.25 43.1875 25.515625 
Q 47.21875 21.78125 47.21875 15.09375 
Q 47.21875 7.46875 41.1875 3.015625 
Q 35.15625 -1.421875 24.609375 -1.421875 
Q 20.21875 -1.421875 15.453125 -0.5625 
Q 10.6875 0.296875 5.421875 2 
L 5.421875 11.28125 
Q 10.40625 8.6875 15.234375 7.390625 
Q 20.0625 6.109375 24.8125 6.109375 
Q 31.15625 6.109375 34.5625 8.28125 
Q 37.984375 10.453125 37.984375 14.40625 
Q 37.984375 18.0625 35.515625 20.015625 
Q 33.0625 21.96875 24.703125 23.78125 
L 21.578125 24.515625 
Q 13.234375 26.265625 9.515625 29.90625 
Q 5.8125 33.546875 5.8125 39.890625 
Q 5.8125 47.609375 11.28125 51.796875 
Q 16.75 56 26.8125 56 
Q 31.78125 56 36.171875 55.265625 
Q 40.578125 54.546875 44.28125 53.078125 
" id="DejaVuSans-73"/>
      <path d="M 30.609375 48.390625 
Q 23.390625 48.390625 19.1875 42.75 
Q 14.984375 37.109375 14.984375 27.296875 
Q 14.984375 17.484375 19.15625 11.84375 
Q 23.34375 6.203125 30.609375 6.203125 
Q 37.796875 6.203125 41.984375 11.859375 
Q 46.1875 17.53125 46.1875 27.296875 
Q 46.1875 37.015625 41.984375 42.703125 
Q 37.796875 48.390625 30.609375 48.390625 
M 30.609375 56 
Q 42.328125 56 49.015625 48.375 
Q 55.71875 40.765625 55.71875 27.296875 
Q 55.71875 13.875 49.015625 6.21875 
Q 42.328125 -1.421875 30.609375 -1.421875 
Q 18.84375 -1.421875 12.171875 6.21875 
Q 5.515625 13.875 5.515625 27.296875 
Q 5.515625 40.765625 12.171875 48.375 
Q 18.84375 56 30.609375 56 
" id="DejaVuSans-6f"/>
      <path d="M 41.109375 46.296875 
Q 39.59375 47.171875 37.8125 47.578125 
Q 36.03125 48 33.890625 48 
Q 26.265625 48 22.1875 43.046875 
Q 18.109375 38.09375 18.109375 28.8125 
L 18.109375 0 
L 9.078125 0 
L 9.078125 54.6875 
L 18.109375 54.6875 
L 18.109375 46.1875 
Q 20.953125 51.171875 25.484375 53.578125 
Q 30.03125 56 36.53125 56 
Q 37.453125 56 38.578125 55.875 
Q 39.703125 55.765625 41.0625 55.515625 
z
" id="DejaVuSans-72"/>
      <path d="M 34.28125 27.484375 
Q 23.390625 27.484375 19.1875 25 
Q 14.984375 22.515625 14.984375 16.5 
Q 14.984375 11.71875 18.140625 8.90625 
Q 21.296875 6.109375 26.703125 6.109375 
Q 34.1875 6.109375 38.703125 11.40625 
Q 43.21875 16.703125 43.21875 25.484375 
L 43.21875 27.484375 
z
M 52.203125 31.203125 
L 52.203125 0 
L 43.21875 0 
L 43.21875 8.296875 
Q 40.140625 3.328125 35.546875 0.953125 
Q 30.953125 -1.421875 24.3125 -1.421875 
Q 15.921875 -1.421875 10.953125 3.296875 
Q 6 8.015625 6 15.921875 
Q 6 25.140625 12.171875 29.828125 
Q 18.359375 34.515625 30.609375 34.515625 
L 43.21875 34.515625 
L 43.21875 35.40625 
Q 43.21875 41.609375 39.140625 45 
Q 35.0625 48.390625 27.6875 48.390625 
Q 23 48.390625 18.546875 47.265625 
Q 14.109375 46.140625 10.015625 43.890625 
L 10.015625 52.203125 
Q 14.9375 54.109375 19.578125 55.046875 
Q 24.21875 56 28.609375 56 
Q 40.484375 56 46.34375 49.84375 
Q 52.203125 43.703125 52.203125 31.203125 
" id="DejaVuSans-61"/>
      <path d="M 48.78125 52.59375 
L 48.78125 44.1875 
Q 44.96875 46.296875 41.140625 47.34375 
Q 37.3125 48.390625 33.40625 48.390625 
Q 24.65625 48.390625 19.8125 42.84375 
Q 14.984375 37.3125 14.984375 27.296875 
Q 14.984375 17.28125 19.8125 11.734375 
Q 24.65625 6.203125 33.40625 6.203125 
Q 37.3125 6.203125 41.140625 7.25 
Q 44.96875 8.296875 48.78125 10.40625 
L 48.78125 2.09375 
Q 45.015625 0.34375 40.984375 -0.53125 
Q 36.96875 -1.421875 32.421875 -1.421875 
Q 20.0625 -1.421875 12.78125 6.34375 
Q 5.515625 14.109375 5.515625 27.296875 
Q 5.515625 40.671875 12.859375 48.328125 
Q 20.21875 56 33.015625 56 
Q 37.15625 56 41.109375 55.140625 
Q 45.0625 54.296875 48.78125 52.59375 
" id="DejaVuSans-63"/>
      <path d="M 56.203125 29.59375 
L 56.203125 25.203125 
L 14.890625 25.203125 
Q 15.484375 15.921875 20.484375 11.0625 
Q 25.484375 6.203125 34.421875 6.203125 
Q 39.59375 6.203125 44.453125 7.46875 
Q 49.3125 8.734375 54.109375 11.28125 
L 54.109375 2.78125 
Q 49.265625 0.734375 44.1875 -0.34375 
Q 39.109375 -1.421875 33.890625 -1.421875 
Q 20.796875 -1.421875 13.15625 6.1875 
Q 5.515625 13.8125 5.515625 26.8125 
Q 5.515625 40.234375 12.765625 48.109375 
Q 20.015625 56 32.328125 56 
Q 43.359375 56 49.78125 48.890625 
Q 56.203125 41.796875 56.203125 29.59375 
M 47.21875 32.234375 
Q 47.125 39.59375 43.09375 43.984375 
Q 39.0625 48.390625 32.421875 48.390625 
Q 24.90625 48.390625 20.390625 44.140625 
Q 15.875 39.890625 15.1875 32.171875 
z
" id="DejaVuSans-65"/>
     </defs>
     <g transform="translate(16.6375 172.826875)rotate(-90)scale(0.1 -0.1)">
      <use xlink:href="#DejaVuSans-41"/>
      <use x="68.408203" xlink:href="#DejaVuSans-62"/>
      <use x="131.884766" xlink:href="#DejaVuSans-73"/>
      <use x="183.984375" xlink:href="#DejaVuSans-6f"/>
      <use x="245.166016" xlink:href="#DejaVuSans-72"/>
      <use x="286.279297" xlink:href="#DejaVuSans-62"/>
      <use x="349.755859" xlink:href="#DejaVuSans-61"/>
      <use x="411.035156" xlink:href="#DejaVuSans-6e"/>
      <use x="474.414062" xlink:href="#DejaVuSans-63"/>
      <use x="529.394531" xlink:href="#DejaVuSans-65"/>
     </g>
    </g>
   </g>
   <g id="line2d_16">
    <path clip-path="url(#p99e59ec53a)" d="M 69.218182 214.186118 
L 70.655412 212.415088 
L 72.091616 210.710941 
L 73.526763 207.252374 
L 74.960821 205.5126 
L 76.393757 208.108166 
L 77.82554 201.914996 
L 79.256138 199.730781 
L 80.68552 206.41431 
L 82.113656 202.142236 
L 83.540515 203.01082 
L 84.966066 195.340271 
L 86.39028 197.462131 
L 87.813126 197.216553 
L 89.234576 192.750476 
L 90.654599 189.035846 
L 92.073167 190.277769 
L 93.490251 189.458188 
L 94.905822 187.503963 
L 96.319852 190.08901 
L 97.732313 196.394653 
L 99.143177 187.296072 
L 100.552418 188.774088 
L 101.960006 185.200691 
L 103.365916 183.22947 
L 104.77012 179.707715 
L 106.172593 183.24804 
L 107.573307 184.259717 
L 108.972237 174.381416 
L 110.369357 176.393538 
L 111.764641 175.141001 
L 113.158064 169.30713 
L 114.549601 166.769636 
L 115.939227 163.539372 
L 117.326917 155.899198 
L 118.712648 164.127241 
L 120.096394 161.802997 
L 121.478133 164.788797 
L 122.85784 155.196559 
L 124.235492 160.106358 
L 125.611066 166.303651 
L 126.984539 159.267657 
L 128.355888 166.318834 
L 129.725091 168.243604 
L 131.092125 164.180024 
L 132.456969 165.987559 
L 133.8196 168.997724 
L 135.179998 168.617799 
L 136.53814 176.359326 
L 137.894006 168.513324 
L 139.247575 166.875808 
L 141.947739 170.605562 
L 143.294293 169.317812 
L 144.63847 166.56218 
L 145.980247 169.375404 
L 147.319608 172.845256 
L 148.656531 170.208034 
L 149.990999 171.182034 
L 151.322991 167.546484 
L 152.65249 176.035973 
L 153.979477 171.710774 
L 155.303933 171.460426 
L 156.625842 174.111561 
L 157.945185 175.493024 
L 159.261944 171.314508 
L 160.576102 178.029518 
L 161.887642 179.307625 
L 163.196547 181.565343 
L 164.502801 184.143391 
L 165.806387 189.085495 
L 167.107288 192.768908 
L 168.405488 194.982566 
L 169.700972 200.720803 
L 170.993724 203.703823 
L 172.283729 203.703823 
L 173.57097 206.552105 
L 174.855434 212.104442 
L 176.137105 212.113893 
L 177.415969 216.403722 
L 178.692011 219.590678 
L 179.965217 215.419671 
L 181.235573 219.44525 
L 182.503065 217.373074 
L 183.767679 219.90323 
L 185.029402 220.863155 
L 186.288222 217.310247 
L 187.544123 220.781074 
L 188.797095 222.851312 
L 190.047124 219.698561 
L 191.294197 224.719423 
L 192.538303 222.271531 
L 193.779429 219.103718 
L 195.017564 224.049717 
L 196.252695 225.585622 
L 197.484812 226.434143 
L 198.713902 225.003235 
L 199.939955 224.673704 
L 201.16296 225.901291 
L 202.382906 223.089686 
L 203.599783 230.403933 
L 204.813579 226.917171 
L 206.024286 229.201293 
L 207.231892 228.163644 
L 208.436389 229.923302 
L 209.637765 225.925759 
L 210.836013 227.770376 
L 212.031122 228.929907 
L 213.223083 232.940707 
L 214.411889 231.096314 
L 215.597528 232.03963 
L 216.779994 236.964788 
L 217.959278 232.389464 
L 219.135371 228.637998 
L 220.308266 232.9083 
L 221.477954 230.056428 
L 222.644427 230.933363 
L 223.80768 234.270638 
L 224.967703 233.124533 
L 226.124489 226.851944 
L 227.278033 230.245993 
L 228.428326 229.257757 
L 229.575362 229.765309 
L 230.719134 228.190817 
L 231.859637 231.119816 
L 232.996864 236.917455 
L 234.130808 231.986611 
L 235.261465 232.679649 
L 236.388828 227.766459 
L 237.512892 230.792509 
L 238.633651 231.285376 
L 239.7511 229.22712 
L 240.865234 221.32769 
L 241.976048 228.638773 
L 243.083538 233.433292 
L 244.187698 226.742902 
L 245.288525 226.766999 
L 246.386013 227.240579 
L 247.48016 224.817442 
L 248.57096 216.1981 
L 249.65841 217.064823 
L 250.742507 225.116261 
L 251.823247 218.236171 
L 252.900626 215.798321 
L 253.974641 214.442962 
L 255.045289 206.607052 
L 256.112568 207.158245 
L 257.176474 205.57629 
L 258.237005 207.098246 
L 259.294158 204.650538 
L 260.347931 212.061617 
L 261.398321 209.096623 
L 262.445327 219.46314 
L 263.488947 218.498356 
L 264.529179 230.025471 
L 265.566021 226.684918 
L 266.599472 233.345193 
L 267.62953 234.49973 
L 268.656194 229.829613 
L 269.679464 236.964788 
L 270.699337 235.133871 
L 271.715814 242.116364 
L 272.728893 235.573842 
L 273.738574 237.919899 
L 274.744857 234.336569 
L 275.747741 236.138325 
L 276.747226 236.925512 
L 277.743313 237.231651 
L 278.736 236.88126 
L 279.725289 238.555008 
L 280.71118 235.057969 
L 281.693673 237.74938 
L 282.672769 236.882162 
L 283.648468 237.796723 
L 284.620772 235.959602 
L 285.589681 240.191865 
L 286.555197 235.156108 
L 287.51732 233.565792 
L 288.476053 235.9151 
L 289.431396 236.46008 
L 290.383351 234.597912 
L 291.331921 240.444058 
L 292.277105 240.047595 
L 293.218908 234.236576 
L 294.15733 234.279861 
L 295.092373 238.272425 
L 296.024041 241.755517 
L 296.952335 240.606613 
L 297.877259 236.737508 
L 298.798813 236.937608 
L 299.717003 235.879194 
L 300.631829 233.343238 
L 301.543295 234.85913 
L 302.451405 236.074786 
L 303.356161 235.134864 
L 304.257567 236.33545 
L 305.155625 234.436614 
L 306.05034 238.30544 
L 306.941715 240.157669 
L 307.829754 241.670201 
L 308.71446 236.00645 
L 309.595838 232.017398 
L 310.473891 231.272163 
L 311.348624 234.666365 
L 312.22004 240.23783 
L 313.088145 235.005079 
L 313.952942 234.128504 
L 314.814435 229.835829 
L 315.672631 237.317793 
L 316.527532 236.944989 
L 317.379144 236.193659 
L 318.227472 236.51126 
L 319.072521 234.271659 
L 319.914296 239.069383 
L 320.752801 235.729493 
L 321.588043 233.697931 
L 322.420027 233.373641 
L 323.248757 237.515205 
L 324.074239 238.218983 
L 324.89648 233.8666 
L 325.715485 230.476349 
L 326.531258 231.01993 
L 327.343807 230.691254 
L 328.153138 231.736833 
L 328.959255 226.086857 
L 329.762166 228.355738 
L 330.561876 227.090511 
L 331.358392 222.318785 
L 332.151721 230.734823 
L 332.941867 231.00046 
L 333.728839 231.413011 
L 334.512642 231.090649 
L 335.293283 228.473142 
L 336.070769 224.655744 
L 336.845107 230.042657 
L 337.616303 231.214396 
L 338.384365 230.933363 
L 339.149299 228.203301 
L 339.911113 226.423265 
L 340.669814 227.528408 
L 341.425408 231.552752 
L 342.177904 225.801838 
L 342.927309 230.26314 
L 343.673629 224.974179 
L 344.416873 227.188673 
L 345.157048 230.16922 
L 345.894161 227.661412 
L 346.628221 229.897983 
L 347.359236 230.495984 
L 348.087212 224.73218 
L 348.812157 222.226556 
L 349.534081 226.421454 
L 350.25299 228.736624 
L 351.681798 220.384016 
L 352.391713 226.948427 
L 353.098646 227.105359 
L 353.802606 227.387833 
L 354.5036 224.207168 
L 356.588877 227.950622 
L 357.964391 223.601653 
L 358.647773 222.863301 
L 359.328249 220.114156 
L 360.005829 223.601653 
L 360.68052 224.677725 
L 361.352333 223.759768 
L 362.021276 223.696026 
L 362.687357 224.055092 
L 363.350586 220.023469 
L 364.010972 221.616457 
L 364.668524 216.958752 
L 365.32325 227.553904 
L 365.975161 228.978627 
L 366.624265 223.955075 
L 367.270571 220.781074 
L 367.914089 218.672419 
L 368.554828 224.81867 
L 369.192797 219.452396 
L 369.828005 225.848562 
L 370.460463 222.581335 
L 371.090179 223.547792 
L 371.717163 216.359211 
L 372.341425 221.031778 
L 372.962973 222.702182 
L 373.581818 223.514885 
L 373.581818 223.514885 
" style="fill:none;stroke:#1f77b4;stroke-linecap:square;stroke-width:1.5;"/>
   </g>
   <g id="line2d_17">
    <path clip-path="url(#p99e59ec53a)" d="M 69.218182 208.903404 
L 70.655412 206.352904 
L 72.091616 206.444473 
L 73.526763 203.762347 
L 74.960821 203.762347 
L 76.393757 207.239582 
L 77.82554 202.804863 
L 79.256138 199.730781 
L 80.68552 203.808541 
L 82.113656 199.520793 
L 83.540515 201.271047 
L 84.966066 193.57941 
L 86.39028 190.585094 
L 87.813126 193.736975 
L 89.234576 188.301059 
L 90.654599 188.167261 
L 92.073167 191.159534 
L 93.490251 185.904123 
L 94.905822 185.769383 
L 96.319852 186.502036 
L 97.732313 192.038631 
L 99.143177 182.013359 
L 100.552418 182.563809 
L 101.960006 180.857692 
L 103.365916 177.930699 
L 104.77012 173.440018 
L 106.172593 176.371003 
L 107.573307 167.295502 
L 108.972237 165.629511 
L 111.764641 155.526476 
L 113.158064 158.147601 
L 114.549601 151.956229 
L 117.326917 141.936572 
L 118.712648 144.925337 
L 120.096394 143.719039 
L 121.478133 140.91862 
L 122.85784 137.635852 
L 124.235492 135.95253 
L 125.611066 138.040261 
L 126.984539 130.016932 
L 128.355888 136.408202 
L 129.725091 128.427583 
L 131.092125 127.973257 
L 132.456969 124.83224 
L 133.8196 126.403366 
L 135.179998 123.577693 
L 136.53814 122.505628 
L 137.894006 119.769716 
L 139.247575 115.829467 
L 141.947739 110.776449 
L 143.294293 104.307759 
L 144.63847 98.993101 
L 145.980247 98.544968 
L 147.319608 92.859826 
L 148.656531 93.158879 
L 149.990999 86.708657 
L 151.322991 84.86668 
L 152.65249 88.517307 
L 153.979477 80.478124 
L 155.303933 77.712459 
L 156.625842 76.225594 
L 157.945185 76.579744 
L 159.261944 75.225593 
L 160.576102 73.329941 
L 161.887642 75.67884 
L 163.196547 71.403244 
L 164.502801 68.472032 
L 165.806387 72.774943 
L 167.107288 72.89875 
L 168.405488 75.112408 
L 169.700972 72.866221 
L 170.993724 82.755375 
L 172.283729 84.474559 
L 173.57097 90.146618 
L 174.855434 103.985706 
L 176.137105 113.686148 
L 177.415969 126.339469 
L 178.692011 135.654783 
L 179.965217 140.831965 
L 181.235573 142.69832 
L 182.503065 141.197777 
L 183.767679 137.175512 
L 185.029402 138.464493 
L 186.288222 137.329598 
L 187.544123 144.502986 
L 188.797095 155.744103 
L 190.047124 159.717951 
L 191.294197 174.015429 
L 192.538303 179.149396 
L 193.779429 185.441083 
L 195.017564 182.021166 
L 196.252695 186.369689 
L 197.484812 187.706818 
L 198.713902 185.441083 
L 199.939955 186.791974 
L 201.16296 191.620126 
L 202.382906 188.130503 
L 203.599783 193.044695 
L 204.813579 194.260658 
L 206.024286 192.771012 
L 207.231892 202.616331 
L 208.436389 198.455303 
L 209.637765 200.161532 
L 210.836013 199.169474 
L 212.031122 204.305807 
L 213.223083 208.443795 
L 214.411889 204.395177 
L 215.597528 203.357528 
L 216.779994 207.44284 
L 219.135371 188.552283 
L 220.308266 192.839232 
L 221.477954 183.059846 
L 222.644427 182.056249 
L 223.80768 172.903973 
L 224.967703 167.700994 
L 226.124489 160.151098 
L 227.278033 162.615415 
L 228.428326 161.627178 
L 229.575362 162.889227 
L 230.719134 165.544238 
L 231.859637 170.202365 
L 232.996864 176.2498 
L 234.130808 174.67816 
L 235.261465 183.579309 
L 236.388828 182.528526 
L 237.512892 187.288789 
L 238.633651 187.310328 
L 239.7511 182.326952 
L 240.865234 182.20431 
L 241.976048 179.408913 
L 243.083538 179.92282 
L 244.187698 176.981402 
L 245.288525 165.505036 
L 246.386013 160.380346 
L 247.48016 148.5898 
L 248.57096 134.907745 
L 249.65841 123.458998 
L 250.742507 113.414528 
L 251.823247 89.865529 
L 252.900626 76.138473 
L 253.974641 70.61755 
L 255.045289 61.335731 
L 256.112568 55.440688 
L 257.176474 51.054203 
L 258.237005 53.477464 
L 259.294158 53.559884 
L 260.347931 60.603356 
L 261.398321 60.845366 
L 262.445327 82.517446 
L 263.488947 94.504151 
L 264.529179 119.659393 
L 265.566021 131.953337 
L 266.599472 159.918771 
L 267.62953 177.081856 
L 268.656194 185.99821 
L 269.679464 202.217137 
L 271.715814 217.727787 
L 272.728893 218.769154 
L 273.738574 217.22856 
L 274.744857 219.18296 
L 275.747741 220.322652 
L 276.747226 222.482614 
L 277.743313 224.929167 
L 278.736 225.505426 
L 279.725289 234.058149 
L 280.71118 226.592587 
L 281.693673 229.621822 
L 282.672769 226.810399 
L 283.648468 233.754345 
L 284.620772 233.917125 
L 285.589681 233.166345 
L 286.555197 233.606551 
L 287.51732 232.010706 
L 288.476053 231.307301 
L 289.431396 235.940793 
L 290.383351 225.174126 
L 291.331921 237.838289 
L 294.15733 233.211694 
L 295.092373 237.184254 
L 296.024041 236.394825 
L 296.952335 234.028039 
L 297.877259 231.203221 
L 298.798813 236.384723 
L 299.717003 234.766008 
L 300.631829 231.125355 
L 301.543295 235.418401 
L 302.451405 233.262167 
L 303.356161 237.88362 
L 304.257567 229.630354 
L 305.155625 231.031795 
L 306.05034 231.561433 
L 306.941715 233.847542 
L 307.829754 232.554434 
L 308.71446 235.433955 
L 309.595838 228.509815 
L 310.473891 230.114627 
L 311.348624 229.356834 
L 312.22004 237.904152 
L 313.088145 231.518542 
L 313.952942 233.540958 
L 314.814435 225.672423 
L 315.672631 231.986611 
L 316.527532 230.954236 
L 317.379144 230.22751 
L 318.227472 232.902006 
L 319.072521 231.303899 
L 319.914296 230.594663 
L 320.752801 230.804947 
L 321.588043 228.783797 
L 323.248757 231.87345 
L 324.074239 225.827286 
L 324.89648 231.96556 
L 325.715485 229.84405 
L 326.531258 228.498949 
L 327.343807 227.480821 
L 328.153138 227.938854 
L 328.959255 226.73036 
L 329.762166 225.072751 
L 330.561876 227.090511 
L 331.358392 224.948135 
L 332.151721 226.869472 
L 332.941867 225.765341 
L 333.728839 227.414674 
L 334.512642 226.49442 
L 335.293283 225.83184 
L 336.070769 226.671067 
L 336.845107 230.042657 
L 337.616303 229.170721 
L 338.384365 228.91804 
L 339.149299 226.851944 
L 339.911113 225.732323 
L 340.669814 226.173901 
L 341.425408 228.779068 
L 342.177904 223.008151 
L 342.927309 225.527788 
L 343.673629 220.803659 
L 344.416873 223.008151 
L 345.157048 228.779068 
L 345.894161 221.907932 
L 346.628221 225.072751 
L 347.359236 229.082155 
L 348.087212 224.015678 
L 348.812157 218.005543 
L 349.534081 227.145094 
L 350.25299 220.988398 
L 350.968893 223.238391 
L 351.681798 217.471297 
L 352.391713 225.517187 
L 353.098646 224.207168 
L 353.802606 226.653215 
L 354.5036 224.207168 
L 355.201638 224.642956 
L 355.896728 227.265525 
L 357.278096 217.673651 
L 357.964391 222.123068 
L 358.647773 218.393347 
L 359.328249 222.404901 
L 360.005829 221.380944 
L 360.68052 223.922091 
L 361.352333 222.26213 
L 362.021276 219.203031 
L 362.687357 214.732113 
L 363.350586 220.781074 
L 364.010972 219.325713 
L 364.668524 216.193162 
L 365.32325 223.072459 
L 365.975161 225.109845 
L 366.624265 218.595796 
L 367.270571 217.738729 
L 367.914089 213.153152 
L 368.554828 223.289502 
L 369.192797 217.106155 
L 370.460463 224.890284 
L 371.090179 220.398262 
L 371.717163 218.73099 
L 372.341425 213.954645 
L 372.962973 219.561165 
L 373.581818 220.373868 
L 373.581818 220.373868 
" style="fill:none;stroke:#ff7f0e;stroke-linecap:square;stroke-width:1.5;"/>
   </g>
   <g id="line2d_18">
    <path clip-path="url(#p99e59ec53a)" d="M 69.218182 207.120937 
L 70.655412 205.476459 
L 72.091616 205.583609 
L 73.526763 203.762347 
L 74.960821 203.762347 
L 76.393757 207.239582 
L 77.82554 200.127044 
L 79.256138 198.86736 
L 80.68552 205.548314 
L 82.113656 199.520793 
L 83.540515 195.988333 
L 84.966066 193.57941 
L 86.39028 193.183096 
L 87.813126 190.21522 
L 89.234576 190.978877 
L 90.654599 189.035846 
L 92.073167 187.616304 
L 93.490251 185.904123 
L 94.905822 187.503963 
L 96.319852 188.301059 
L 97.732313 193.788884 
L 99.143177 184.666722 
L 100.552418 183.459161 
L 101.960006 176.448787 
L 103.365916 179.707715 
L 104.77012 170.711911 
L 106.172593 171.988699 
L 107.573307 175.454763 
L 108.972237 167.40111 
L 110.369357 164.249748 
L 111.764641 164.60663 
L 113.158064 155.510294 
L 114.549601 153.738696 
L 115.939227 145.29312 
L 117.326917 142.829172 
L 118.712648 147.619711 
L 120.096394 143.719039 
L 121.478133 142.690218 
L 122.85784 137.635852 
L 124.235492 138.638601 
L 125.611066 145.148658 
L 126.984539 132.719661 
L 128.355888 135.531758 
L 129.725091 132.932189 
L 131.092125 133.304439 
L 132.456969 127.526614 
L 135.179998 125.343907 
L 136.53814 122.505628 
L 137.894006 122.455787 
L 139.247575 118.474778 
L 141.947739 111.660897 
L 143.294293 106.079357 
L 144.63847 99.908192 
L 145.980247 102.967295 
L 147.319608 92.859826 
L 148.656531 94.048746 
L 149.990999 88.485674 
L 151.322991 85.767584 
L 152.65249 87.635543 
L 153.979477 77.808508 
L 155.303933 79.50593 
L 156.625842 74.443127 
L 157.945185 78.373214 
L 159.261944 70.706976 
L 160.576102 76.884007 
L 161.887642 76.579744 
L 163.196547 73.207854 
L 164.502801 69.381395 
L 165.806387 71.879592 
L 167.107288 72.008883 
L 168.405488 75.999558 
L 169.700972 72.866221 
L 170.993724 85.330351 
L 172.283729 80.157373 
L 173.57097 85.92969 
L 174.855434 97.564644 
L 176.137105 103.35117 
L 177.415969 107.539817 
L 178.692011 113.689068 
L 179.965217 117.989334 
L 181.235573 115.074341 
L 182.503065 117.09029 
L 183.767679 108.45672 
L 185.029402 113.061222 
L 186.288222 109.433381 
L 187.544123 111.91717 
L 188.797095 119.294452 
L 190.047124 125.728351 
L 191.294197 137.650372 
L 192.538303 140.684876 
L 193.779429 147.995878 
L 195.017564 148.506047 
L 196.252695 142.978722 
L 197.484812 153.140557 
L 198.713902 148.629556 
L 199.939955 150.950955 
L 201.16296 152.746156 
L 202.382906 146.468489 
L 203.599783 153.310582 
L 204.813579 153.140557 
L 206.024286 158.064616 
L 207.231892 161.368113 
L 208.436389 160.729059 
L 209.637765 153.873804 
L 210.836013 160.297757 
L 212.031122 158.380155 
L 214.411889 163.296146 
L 215.597528 160.297757 
L 216.779994 163.345421 
L 217.959278 156.831162 
L 219.135371 147.727958 
L 220.308266 150.103513 
L 221.477954 141.397833 
L 222.644427 134.576752 
L 224.967703 123.701771 
L 226.124489 122.023399 
L 227.278033 121.128821 
L 228.428326 118.786077 
L 230.719134 125.023575 
L 231.859637 130.372456 
L 232.996864 140.392112 
L 234.130808 133.689007 
L 235.261465 137.038755 
L 236.388828 138.879572 
L 237.512892 144.166655 
L 238.633651 143.981697 
L 240.865234 135.139786 
L 241.976048 134.710294 
L 243.083538 135.763886 
L 244.187698 128.445299 
L 245.288525 123.202358 
L 246.386013 116.533782 
L 247.48016 106.789522 
L 248.57096 93.049787 
L 249.65841 87.428425 
L 250.742507 85.991264 
L 251.823247 63.783641 
L 252.900626 57.38737 
L 253.974641 60.225696 
L 255.045289 45.260936 
L 256.112568 44.443636 
L 257.176474 44.992019 
L 258.237005 45.752131 
L 259.294158 48.4774 
L 260.347931 54.594903 
L 261.398321 53.341731 
L 262.445327 67.285589 
L 263.488947 71.060693 
L 264.529179 92.998752 
L 265.566021 105.051313 
L 266.599472 130.193096 
L 267.62953 141.212051 
L 268.656194 146.72436 
L 269.679464 165.746602 
L 270.699337 171.863195 
L 272.728893 180.190764 
L 273.738574 180.829461 
L 274.744857 175.397695 
L 275.747741 181.235878 
L 277.743313 187.422494 
L 278.736 182.645468 
L 279.725289 189.522677 
L 280.71118 188.301059 
L 281.693673 192.293568 
L 282.672769 184.997103 
L 283.648468 187.521943 
L 284.620772 192.694961 
L 285.589681 192.331073 
L 286.555197 193.698265 
L 287.51732 192.545306 
L 288.476053 190.365059 
L 289.431396 193.48318 
L 290.383351 194.325953 
L 292.277105 198.348072 
L 293.218908 195.592195 
L 294.15733 196.775286 
L 295.092373 201.254955 
L 296.024041 199.524354 
L 296.952335 201.810235 
L 297.877259 200.591645 
L 298.798813 201.748536 
L 300.631829 196.904524 
L 301.543295 198.531392 
L 302.451405 201.013025 
L 303.356161 199.945793 
L 304.257567 193.566611 
L 305.155625 199.721725 
L 306.05034 201.643951 
L 306.941715 202.009098 
L 307.829754 201.427942 
L 308.71446 195.571369 
L 309.595838 196.19418 
L 310.473891 196.979121 
L 311.348624 201.903346 
L 312.22004 205.071202 
L 313.088145 201.361291 
L 313.952942 201.881914 
L 314.814435 198.040784 
L 315.672631 203.096962 
L 316.527532 197.639931 
L 317.379144 201.751295 
L 318.227472 201.617101 
L 319.072521 198.496535 
L 319.914296 206.262019 
L 320.752801 206.201016 
L 321.588043 200.844356 
L 322.420027 206.17622 
L 323.248757 203.294374 
L 324.074239 202.782497 
L 324.89648 205.352804 
L 325.715485 202.65846 
L 326.531258 198.519672 
L 327.343807 202.552384 
L 328.153138 202.65846 
L 328.959255 200.51349 
L 329.762166 203.134692 
L 330.561876 204.149752 
L 331.358392 201.091965 
L 332.151721 202.530865 
L 332.941867 200.24473 
L 333.728839 205.107991 
L 334.512642 206.638176 
L 335.293283 200.91304 
L 336.070769 204.417802 
L 336.845107 204.400217 
L 337.616303 207.165632 
L 338.384365 207.956458 
L 339.149299 202.861617 
L 339.911113 206.42728 
L 340.669814 207.965359 
L 341.425408 210.816534 
L 342.177904 203.413677 
L 342.927309 203.576356 
L 343.673629 201.258024 
L 344.416873 207.143398 
L 345.157048 207.086814 
L 345.894161 207.768692 
L 347.359236 212.308491 
L 348.087212 206.267183 
L 348.812157 201.23188 
L 349.534081 206.944904 
L 350.25299 204.843063 
L 350.968893 206.294557 
L 351.681798 203.990161 
L 352.391713 205.471911 
L 353.098646 204.629628 
L 353.802606 210.003067 
L 354.5036 212.316353 
L 355.201638 210.768324 
L 355.896728 211.556767 
L 356.588877 208.474072 
L 357.278096 207.667268 
L 357.964391 212.32438 
L 358.647773 206.908008 
L 359.328249 205.170988 
L 360.005829 207.687985 
L 360.68052 208.381421 
L 361.352333 209.994714 
L 362.021276 210.780956 
L 362.687357 204.282754 
L 363.350586 208.41575 
L 364.010972 209.184989 
L 364.668524 203.661139 
L 365.32325 216.987603 
L 365.975161 216.412723 
L 366.624265 210.764021 
L 367.270571 206.832415 
L 367.914089 206.714301 
L 368.554828 209.152274 
L 369.192797 207.527004 
L 369.828005 208.283028 
L 370.460463 213.15755 
L 371.090179 209.919911 
L 371.717163 209.125445 
L 372.341425 206.700812 
L 372.962973 209.929081 
L 373.581818 216.399234 
L 373.581818 216.399234 
" style="fill:none;stroke:#2ca02c;stroke-linecap:square;stroke-width:1.5;"/>
   </g>
   <g id="line2d_19">
    <path clip-path="url(#p99e59ec53a)" d="M 69.218182 212.435864 
L 70.655412 209.832482 
L 72.091616 209.862644 
L 73.526763 204.638792 
L 74.960821 206.383789 
L 76.393757 206.368393 
L 77.82554 201.914996 
L 79.256138 198.001364 
L 80.68552 209.852708 
L 82.113656 203.01082 
L 83.540515 198.641696 
L 84.966066 192.694961 
L 86.39028 196.611351 
L 87.813126 199.799158 
L 89.234576 193.63224 
L 90.654599 190.765263 
L 92.073167 191.159534 
L 93.490251 188.573739 
L 94.905822 184.898194 
L 96.319852 187.40294 
L 97.732313 192.915076 
L 99.143177 182.900508 
L 100.552418 187.013226 
L 101.960006 184.337269 
L 103.365916 179.707715 
L 104.77012 173.440018 
L 106.172593 173.74956 
L 107.573307 179.890594 
L 108.972237 164.739645 
L 110.369357 167.771503 
L 111.764641 162.813159 
L 113.158064 159.02141 
L 114.549601 153.738696 
L 115.939227 147.081071 
L 117.326917 147.251499 
L 118.712648 149.402179 
L 120.096394 141.936572 
L 121.478133 142.690218 
L 122.85784 140.338581 
L 124.235492 143.060928 
L 125.611066 141.616198 
L 126.984539 132.719661 
L 128.355888 136.408202 
L 129.725091 134.714656 
L 131.092125 126.174235 
L 132.456969 127.526614 
L 133.8196 128.196837 
L 135.179998 124.462142 
L 136.53814 123.387393 
L 137.894006 120.667835 
L 139.247575 120.225031 
L 140.598826 117.747238 
L 141.947739 112.542662 
L 143.294293 107.840219 
L 144.63847 104.440909 
L 145.980247 102.088198 
L 147.319608 97.295657 
L 148.656531 96.702109 
L 149.990999 92.007429 
L 151.322991 86.665703 
L 152.65249 90.272849 
L 153.979477 82.244338 
L 155.303933 83.94176 
L 156.625842 81.508308 
L 157.945185 75.67884 
L 159.261944 72.522865 
L 160.576102 79.521313 
L 161.887642 80.155681 
L 163.196547 74.105973 
L 164.502801 69.381395 
L 165.806387 74.55741 
L 167.107288 75.552113 
L 168.405488 75.999558 
L 169.700972 78.230212 
L 170.993724 87.882707 
L 172.283729 81.025958 
L 174.855434 97.564644 
L 176.137105 102.540734 
L 177.415969 112.163914 
L 178.692011 120.454888 
L 179.965217 123.306577 
L 181.235573 122.411631 
L 182.503065 116.350057 
L 183.767679 112.949715 
L 185.029402 111.582637 
L 186.288222 114.641686 
L 187.544123 117.008135 
L 188.797095 124.285468 
L 190.047124 127.801187 
L 191.294197 136.31147 
L 192.538303 140.684876 
L 193.779429 146.72436 
L 195.017564 149.139725 
L 196.252695 147.493327 
L 197.484812 156.849644 
L 198.713902 148.629556 
L 199.939955 152.851995 
L 201.16296 155.833765 
L 202.382906 152.171772 
L 203.599783 155.183035 
L 204.813579 156.849644 
L 206.024286 157.439124 
L 207.231892 164.429693 
L 208.436389 163.160381 
L 209.637765 164.218774 
L 210.836013 160.297757 
L 212.031122 166.854876 
L 213.223083 167.027551 
L 214.411889 169.201659 
L 215.597528 164.48689 
L 216.779994 169.31157 
L 219.135371 153.309498 
L 220.308266 151.963975 
L 221.477954 148.353451 
L 222.644427 139.75357 
L 223.80768 136.232519 
L 224.967703 129.832998 
L 226.124489 124.682834 
L 227.278033 125.154861 
L 228.428326 124.83224 
L 229.575362 128.454685 
L 230.719134 125.023575 
L 231.859637 131.00891 
L 232.996864 139.15839 
L 234.130808 137.437979 
L 235.261465 139.490594 
L 236.388828 137.038755 
L 237.512892 145.995882 
L 238.633651 144.580135 
L 240.865234 136.980602 
L 241.976048 137.17775 
L 243.083538 133.875204 
L 244.187698 129.073496 
L 245.288525 121.916775 
L 246.386013 116.533782 
L 247.48016 112.108504 
L 248.57096 97.932948 
L 249.65841 90.2561 
L 250.742507 87.462362 
L 251.823247 66.976434 
L 252.900626 61.394899 
L 253.974641 58.593438 
L 255.045289 48.719802 
L 256.112568 47.871892 
L 257.176474 45.865828 
L 258.237005 48.350132 
L 259.294158 48.4774 
L 260.347931 51.981321 
L 261.398321 56.700627 
L 262.445327 68.107488 
L 263.488947 76.702448 
L 265.566021 108.642721 
L 266.599472 130.872725 
L 267.62953 143.788931 
L 268.656194 154.271311 
L 269.679464 171.664144 
L 271.715814 183.188764 
L 272.728893 184.802627 
L 273.738574 185.992225 
L 274.744857 186.837805 
L 275.747741 186.989358 
L 276.747226 190.677148 
L 277.743313 192.524813 
L 278.736 191.284595 
L 279.725289 194.180753 
L 280.71118 192.308588 
L 281.693673 193.46275 
L 282.672769 193.740228 
L 283.648468 197.491036 
L 284.620772 196.216716 
L 285.589681 196.970553 
L 286.555197 202.476614 
L 287.51732 199.021671 
L 288.476053 196.828326 
L 289.431396 198.847171 
L 290.383351 197.269658 
L 291.331921 204.597363 
L 292.277105 202.010405 
L 293.218908 200.414567 
L 294.15733 203.964302 
L 295.092373 208.564555 
L 296.024041 206.80343 
L 296.952335 203.046582 
L 297.877259 206.125931 
L 298.798813 202.371347 
L 299.717003 202.351945 
L 300.631829 201.254955 
L 302.451405 204.778191 
L 303.356161 204.277691 
L 304.257567 202.390668 
L 305.155625 203.511447 
L 306.05034 202.901707 
L 306.941715 203.300395 
L 307.829754 205.902813 
L 308.71446 202.713525 
L 309.595838 203.977 
L 310.473891 204.676028 
L 311.348624 205.803287 
L 312.22004 213.474538 
L 313.088145 209.041243 
L 313.952942 205.790599 
L 314.814435 205.198937 
L 315.672631 208.979888 
L 316.527532 206.333413 
L 317.379144 207.022029 
L 318.227472 202.290429 
L 319.072521 207.052161 
L 319.914296 207.59478 
L 320.752801 207.549238 
L 321.588043 209.578045 
L 322.420027 208.20562 
L 323.248757 210.195916 
L 324.074239 211.556767 
L 324.89648 209.503464 
L 325.715485 206.79926 
L 326.531258 204.768111 
L 327.343807 208.815792 
L 328.153138 205.42554 
L 328.959255 206.776897 
L 329.762166 208.776447 
L 330.561876 206.188647 
L 331.358392 204.622279 
L 332.151721 209.498615 
L 332.941867 208.068835 
L 333.728839 207.273526 
L 334.512642 208.756348 
L 335.293283 209.458987 
L 336.070769 205.859697 
L 336.845107 210.848993 
L 337.616303 210.829505 
L 338.384365 210.121993 
L 339.911113 207.165632 
L 340.669814 209.407254 
L 341.425408 212.295119 
L 342.177904 209.358462 
L 342.927309 208.680098 
L 343.673629 205.716545 
L 344.416873 207.143398 
L 345.157048 213.766217 
L 345.894161 210.803093 
L 346.628221 208.629375 
L 347.359236 214.552064 
L 348.087212 210.055259 
L 348.812157 209.37497 
L 349.534081 212.318344 
L 350.968893 210.810833 
L 351.681798 206.280906 
L 352.391713 210.047459 
L 353.098646 210.795191 
L 353.802606 213.102203 
L 354.5036 209.266023 
L 355.201638 210.768324 
L 355.896728 214.615124 
L 357.278096 205.308327 
L 357.964391 209.241685 
L 358.647773 208.465874 
L 359.328249 213.13152 
L 360.005829 214.615124 
L 360.68052 212.345211 
L 361.352333 215.425549 
L 362.021276 211.556767 
L 362.687357 214.732113 
L 363.350586 213.114633 
L 364.010972 213.127264 
L 364.668524 209.994714 
L 365.32325 217.755216 
L 366.624265 212.347356 
L 367.270571 211.556767 
L 367.914089 209.951563 
L 368.554828 216.306866 
L 369.192797 212.356056 
L 369.828005 215.59774 
L 370.460463 217.907649 
L 371.090179 216.412723 
L 372.341425 211.556767 
L 372.962973 213.175386 
L 373.581818 216.399234 
L 373.581818 216.399234 
" style="fill:none;stroke:#d62728;stroke-linecap:square;stroke-width:1.5;"/>
   </g>
   <g id="line2d_20">
    <path clip-path="url(#p99e59ec53a)" d="M 69.218182 211.556767 
L 70.655412 212.415088 
L 72.091616 207.302793 
L 73.526763 205.5126 
L 76.393757 210.698447 
L 77.82554 202.804863 
L 79.256138 198.86736 
L 80.68552 208.138595 
L 82.113656 202.142236 
L 83.540515 201.271047 
L 84.966066 193.57941 
L 86.39028 192.319674 
L 87.813126 198.079974 
L 89.234576 193.63224 
L 90.654599 189.901841 
L 92.073167 193.788884 
L 93.490251 191.21905 
L 94.905822 190.942361 
L 96.319852 190.978877 
L 97.732313 196.394653 
L 99.143177 184.666722 
L 100.552418 189.650533 
L 101.960006 185.200691 
L 103.365916 186.709048 
L 104.77012 182.353025 
L 106.172593 180.688189 
L 107.573307 181.646135 
L 108.972237 176.1006 
L 110.369357 173.833686 
L 111.764641 173.411584 
L 113.158064 168.463758 
L 114.549601 167.617932 
L 115.939227 163.539372 
L 117.326917 161.802997 
L 118.712648 169.151135 
L 120.096394 165.123505 
L 121.478133 165.606073 
L 122.85784 164.420866 
L 124.235492 168.268165 
L 125.611066 166.303651 
L 126.984539 164.137178 
L 129.725091 174.508887 
L 131.092125 168.11163 
L 132.456969 171.418395 
L 133.8196 172.85623 
L 135.179998 175.366158 
L 137.894006 178.970951 
L 139.247575 178.528147 
L 140.598826 176.854509 
L 141.947739 176.31663 
L 143.294293 170.73509 
L 144.63847 173.0269 
L 145.980247 177.637798 
L 147.319608 175.547985 
L 148.656531 178.297872 
L 149.990999 182.935867 
L 151.322991 178.209745 
L 152.65249 186.276373 
L 153.979477 181.258443 
L 155.303933 188.537406 
L 156.625842 184.700517 
L 157.945185 185.556065 
L 159.261944 187.599098 
L 160.576102 186.629676 
L 161.887642 189.851367 
L 163.196547 190.11129 
L 164.502801 192.582942 
L 165.806387 192.065432 
L 167.107288 190.406771 
L 168.405488 187.837749 
L 169.700972 200.139139 
L 170.993724 196.799547 
L 172.283729 197.961714 
L 173.57097 200.888354 
L 174.855434 200.949857 
L 176.137105 197.854837 
L 177.415969 201.61332 
L 178.692011 201.61332 
L 179.965217 203.673381 
L 181.235573 202.349657 
L 182.503065 197.888148 
L 183.767679 199.122407 
L 185.029402 200.854222 
L 186.288222 199.145505 
L 187.544123 207.88893 
L 188.797095 204.133777 
L 190.047124 202.648583 
L 191.294197 207.383751 
L 192.538303 202.583845 
L 193.779429 200.650453 
L 195.017564 204.841737 
L 196.252695 206.377642 
L 197.484812 204.34438 
L 198.713902 204.853655 
L 199.939955 206.874712 
L 201.16296 202.283387 
L 202.382906 201.671689 
L 203.599783 206.908008 
L 204.813579 203.822293 
L 206.024286 204.720187 
L 207.231892 208.432638 
L 208.436389 204.292858 
L 209.637765 206.43245 
L 210.836013 201.271047 
L 212.031122 206.396041 
L 213.223083 213.100834 
L 214.411889 208.509104 
L 215.597528 213.068694 
L 216.779994 213.592091 
L 217.959278 213.095383 
L 219.135371 210.044841 
L 220.308266 215.557398 
L 222.644427 214.546927 
L 224.967703 215.599146 
L 226.124489 214.000358 
L 227.278033 218.887886 
L 228.428326 216.44815 
L 229.575362 211.556767 
L 231.859637 215.386032 
L 232.996864 220.102714 
L 234.130808 215.379734 
L 235.261465 216.281119 
L 236.388828 214.871862 
L 237.512892 220.158946 
L 238.633651 218.592008 
L 239.7511 216.312049 
L 240.865234 212.501618 
L 241.976048 212.979829 
L 243.083538 216.351286 
L 244.187698 212.970596 
L 245.288525 212.029577 
L 246.386013 212.503157 
L 247.48016 212.490984 
L 248.57096 209.207997 
L 249.65841 212.482059 
L 250.742507 217.244543 
L 251.823247 213.959934 
L 252.900626 211.556767 
L 253.974641 211.556767 
L 255.045289 216.423569 
L 256.112568 212.525239 
L 257.176474 214.501467 
L 258.237005 211.064741 
L 259.294158 211.556767 
L 260.347931 218.546069 
L 261.398321 211.066402 
L 262.445327 213.055694 
L 263.488947 213.557059 
L 264.529179 215.543674 
L 265.566021 210.050068 
L 266.599472 217.662938 
L 267.62953 212.064263 
L 268.656194 208.482228 
L 269.679464 217.119955 
L 270.699337 213.120222 
L 271.715814 212.594416 
L 272.728893 215.18534 
L 273.738574 214.66419 
L 274.744857 212.585233 
L 275.747741 214.162536 
L 276.747226 214.720587 
L 278.736 212.613282 
L 279.725289 221.188851 
L 280.71118 213.148778 
L 281.693673 219.131829 
L 282.672769 215.312662 
L 283.648468 213.199795 
L 284.620772 217.03884 
L 285.589681 215.361852 
L 286.555197 218.185372 
L 287.51732 216.532857 
L 288.476053 214.305522 
L 289.431396 216.60004 
L 290.383351 212.113893 
L 291.331921 218.353364 
L 292.277105 220.799415 
L 293.218908 216.689131 
L 294.15733 217.829737 
L 295.092373 222.080538 
L 296.024041 220.836319 
L 296.952335 220.406424 
L 297.877259 224.419849 
L 298.798813 220.460669 
L 299.717003 219.892539 
L 300.631829 216.281119 
L 301.543295 216.965137 
L 302.451405 216.389166 
L 303.356161 221.56627 
L 304.257567 213.952997 
L 305.155625 222.34098 
L 306.05034 216.987603 
L 306.941715 218.975245 
L 307.829754 221.344345 
L 308.71446 218.928188 
L 309.595838 217.11458 
L 310.473891 218.881725 
L 311.348624 219.671229 
L 312.22004 224.109097 
L 313.088145 217.751911 
L 313.952942 219.6887 
L 314.814435 218.393347 
L 315.672631 223.494195 
L 316.527532 224.837352 
L 317.379144 220.419279 
L 318.227472 218.635642 
L 319.072521 218.497279 
L 319.914296 224.38628 
L 320.752801 220.054642 
L 321.588043 217.41334 
L 322.420027 218.795995 
L 323.248757 222.873665 
L 324.074239 221.36224 
L 324.89648 220.951529 
L 325.715485 220.190628 
L 326.531258 220.802042 
L 327.343807 220.951529 
L 328.153138 218.878927 
L 328.959255 216.259272 
L 329.762166 214.995165 
L 330.561876 218.779634 
L 331.358392 216.314274 
L 332.151721 216.303171 
L 332.941867 217.051801 
L 333.728839 221.312066 
L 334.512642 217.760731 
L 335.293283 217.077907 
L 336.070769 217.835214 
L 336.845107 221.288724 
L 337.616303 222.252745 
L 338.384365 221.406567 
L 339.149299 217.911507 
L 339.911113 217.310247 
L 340.669814 215.808666 
L 341.425408 221.01201 
L 342.177904 217.338874 
L 342.927309 217.926989 
L 343.673629 212.998662 
L 344.416873 219.477837 
L 345.157048 221.01201 
L 345.894161 219.72066 
L 346.628221 218.03751 
L 347.359236 225.517187 
L 348.087212 219.679161 
L 348.812157 218.005543 
L 349.534081 221.304872 
L 350.25299 220.988398 
L 350.968893 221.083563 
L 351.681798 214.529082 
L 352.391713 219.72066 
L 353.098646 215.33499 
L 353.802606 220.708429 
L 354.5036 219.804944 
L 355.201638 219.325713 
L 355.896728 222.123068 
L 356.588877 219.869308 
L 357.278096 216.916046 
L 357.964391 218.393347 
L 358.647773 215.37471 
L 359.328249 219.346544 
L 360.005829 216.132315 
L 360.68052 220.114156 
L 361.352333 216.193162 
L 362.021276 217.689792 
L 362.687357 216.306866 
L 363.350586 219.263884 
L 364.668524 214.655903 
L 365.32325 223.824183 
L 365.975161 222.763604 
L 366.624265 219.367486 
L 367.270571 219.263884 
L 367.914089 214.740813 
L 368.554828 219.430996 
L 369.192797 213.948067 
L 369.828005 221.162312 
L 370.460463 219.473912 
L 371.090179 218.810601 
L 371.717163 216.359211 
L 372.341425 217.121339 
L 372.962973 218.770576 
L 373.581818 221.948621 
L 373.581818 221.948621 
" style="fill:none;stroke:#9467bd;stroke-linecap:square;stroke-width:1.5;"/>
   </g>
   <g id="patch_3">
    <path d="M 54 252 
L 54 34.56 
" style="fill:none;stroke:#000000;stroke-linecap:square;stroke-linejoin:miter;stroke-width:0.8;"/>
   </g>
   <g id="patch_4">
    <path d="M 388.8 252 
L 388.8 34.56 
" style="fill:none;stroke:#000000;stroke-linecap:square;stroke-linejoin:miter;stroke-width:0.8;"/>
   </g>
   <g id="patch_5">
    <path d="M 54 252 
L 388.8 252 
" style="fill:none;stroke:#000000;stroke-linecap:square;stroke-linejoin:miter;stroke-width:0.8;"/>
   </g>
   <g id="patch_6">
    <path d="M 54 34.56 
L 388.8 34.56 
" style="fill:none;stroke:#000000;stroke-linecap:square;stroke-linejoin:miter;stroke-width:0.8;"/>
   </g>
   <g id="legend_1">
    <g id="patch_7">
     <path d="M 287.04375 115.950625 
L 381.8 115.950625 
Q 383.8 115.950625 383.8 113.950625 
L 383.8 41.56 
Q 383.8 39.56 381.8 39.56 
L 287.04375 39.56 
Q 285.04375 39.56 285.04375 41.56 
L 285.04375 113.950625 
Q 285.04375 115.950625 287.04375 115.950625 
z
" style="fill:#ffffff;opacity:0.8;stroke:#cccccc;stroke-linejoin:miter;"/>
    </g>
    <g id="line2d_21">
     <path d="M 289.04375 47.658437 
L 309.04375 47.658437 
" style="fill:none;stroke:#1f77b4;stroke-linecap:square;stroke-width:1.5;"/>
    </g>
    <g id="line2d_22"/>
    <g id="text_18">
     <!-- Filippo OO -->
     <defs>
      <path d="M 9.8125 72.90625 
L 51.703125 72.90625 
L 51.703125 64.59375 
L 19.671875 64.59375 
L 19.671875 43.109375 
L 48.578125 43.109375 
L 48.578125 34.8125 
L 19.671875 34.8125 
L 19.671875 0 
L 9.8125 0 
z
" id="DejaVuSans-46"/>
      <path d="M 9.421875 54.6875 
L 18.40625 54.6875 
L 18.40625 0 
L 9.421875 0 
z
M 9.421875 75.984375 
L 18.40625 75.984375 
L 18.40625 64.59375 
L 9.421875 64.59375 
z
" id="DejaVuSans-69"/>
      <path d="M 9.421875 75.984375 
L 18.40625 75.984375 
L 18.40625 0 
L 9.421875 0 
z
" id="DejaVuSans-6c"/>
      <path d="M 18.109375 8.203125 
L 18.109375 -20.796875 
L 9.078125 -20.796875 
L 9.078125 54.6875 
L 18.109375 54.6875 
L 18.109375 46.390625 
Q 20.953125 51.265625 25.265625 53.625 
Q 29.59375 56 35.59375 56 
Q 45.5625 56 51.78125 48.09375 
Q 58.015625 40.1875 58.015625 27.296875 
Q 58.015625 14.40625 51.78125 6.484375 
Q 45.5625 -1.421875 35.59375 -1.421875 
Q 29.59375 -1.421875 25.265625 0.953125 
Q 20.953125 3.328125 18.109375 8.203125 
M 48.6875 27.296875 
Q 48.6875 37.203125 44.609375 42.84375 
Q 40.53125 48.484375 33.40625 48.484375 
Q 26.265625 48.484375 22.1875 42.84375 
Q 18.109375 37.203125 18.109375 27.296875 
Q 18.109375 17.390625 22.1875 11.75 
Q 26.265625 6.109375 33.40625 6.109375 
Q 40.53125 6.109375 44.609375 11.75 
Q 48.6875 17.390625 48.6875 27.296875 
" id="DejaVuSans-70"/>
      <path id="DejaVuSans-20"/>
      <path d="M 39.40625 66.21875 
Q 28.65625 66.21875 22.328125 58.203125 
Q 16.015625 50.203125 16.015625 36.375 
Q 16.015625 22.609375 22.328125 14.59375 
Q 28.65625 6.59375 39.40625 6.59375 
Q 50.140625 6.59375 56.421875 14.59375 
Q 62.703125 22.609375 62.703125 36.375 
Q 62.703125 50.203125 56.421875 58.203125 
Q 50.140625 66.21875 39.40625 66.21875 
M 39.40625 74.21875 
Q 54.734375 74.21875 63.90625 63.9375 
Q 73.09375 53.65625 73.09375 36.375 
Q 73.09375 19.140625 63.90625 8.859375 
Q 54.734375 -1.421875 39.40625 -1.421875 
Q 24.03125 -1.421875 14.8125 8.828125 
Q 5.609375 19.09375 5.609375 36.375 
Q 5.609375 53.65625 14.8125 63.9375 
Q 24.03125 74.21875 39.40625 74.21875 
" id="DejaVuSans-4f"/>
     </defs>
     <g transform="translate(317.04375 51.158437)scale(0.1 -0.1)">
      <use xlink:href="#DejaVuSans-46"/>
      <use x="57.410156" xlink:href="#DejaVuSans-69"/>
      <use x="85.193359" xlink:href="#DejaVuSans-6c"/>
      <use x="112.976562" xlink:href="#DejaVuSans-69"/>
      <use x="140.759766" xlink:href="#DejaVuSans-70"/>
      <use x="204.236328" xlink:href="#DejaVuSans-70"/>
      <use x="267.712891" xlink:href="#DejaVuSans-6f"/>
      <use x="328.894531" xlink:href="#DejaVuSans-20"/>
      <use x="360.681641" xlink:href="#DejaVuSans-4f"/>
      <use x="439.392578" xlink:href="#DejaVuSans-4f"/>
     </g>
    </g>
    <g id="line2d_23">
     <path d="M 289.04375 62.336562 
L 309.04375 62.336562 
" style="fill:none;stroke:#ff7f0e;stroke-linecap:square;stroke-width:1.5;"/>
    </g>
    <g id="line2d_24"/>
    <g id="text_19">
     <!-- 365 EVOO -->
     <defs>
      <path d="M 9.8125 72.90625 
L 55.90625 72.90625 
L 55.90625 64.59375 
L 19.671875 64.59375 
L 19.671875 43.015625 
L 54.390625 43.015625 
L 54.390625 34.71875 
L 19.671875 34.71875 
L 19.671875 8.296875 
L 56.78125 8.296875 
L 56.78125 0 
L 9.8125 0 
z
" id="DejaVuSans-45"/>
      <path d="M 28.609375 0 
L 0.78125 72.90625 
L 11.078125 72.90625 
L 34.1875 11.53125 
L 57.328125 72.90625 
L 67.578125 72.90625 
L 39.796875 0 
z
" id="DejaVuSans-56"/>
     </defs>
     <g transform="translate(317.04375 65.836562)scale(0.1 -0.1)">
      <use xlink:href="#DejaVuSans-33"/>
      <use x="63.623047" xlink:href="#DejaVuSans-36"/>
      <use x="127.246094" xlink:href="#DejaVuSans-35"/>
      <use x="190.869141" xlink:href="#DejaVuSans-20"/>
      <use x="222.65625" xlink:href="#DejaVuSans-45"/>
      <use x="285.839844" xlink:href="#DejaVuSans-56"/>
      <use x="354.232422" xlink:href="#DejaVuSans-4f"/>
      <use x="432.943359" xlink:href="#DejaVuSans-4f"/>
     </g>
    </g>
    <g id="line2d_25">
     <path d="M 289.04375 77.014687 
L 309.04375 77.014687 
" style="fill:none;stroke:#2ca02c;stroke-linecap:square;stroke-width:1.5;"/>
    </g>
    <g id="line2d_26"/>
    <g id="text_20">
     <!-- UCD EVOO -->
     <defs>
      <path d="M 8.6875 72.90625 
L 18.609375 72.90625 
L 18.609375 28.609375 
Q 18.609375 16.890625 22.84375 11.734375 
Q 27.09375 6.59375 36.625 6.59375 
Q 46.09375 6.59375 50.34375 11.734375 
Q 54.59375 16.890625 54.59375 28.609375 
L 54.59375 72.90625 
L 64.5 72.90625 
L 64.5 27.390625 
Q 64.5 13.140625 57.4375 5.859375 
Q 50.390625 -1.421875 36.625 -1.421875 
Q 22.796875 -1.421875 15.734375 5.859375 
Q 8.6875 13.140625 8.6875 27.390625 
z
" id="DejaVuSans-55"/>
      <path d="M 64.40625 67.28125 
L 64.40625 56.890625 
Q 59.421875 61.53125 53.78125 63.8125 
Q 48.140625 66.109375 41.796875 66.109375 
Q 29.296875 66.109375 22.65625 58.46875 
Q 16.015625 50.828125 16.015625 36.375 
Q 16.015625 21.96875 22.65625 14.328125 
Q 29.296875 6.6875 41.796875 6.6875 
Q 48.140625 6.6875 53.78125 8.984375 
Q 59.421875 11.28125 64.40625 15.921875 
L 64.40625 5.609375 
Q 59.234375 2.09375 53.4375 0.328125 
Q 47.65625 -1.421875 41.21875 -1.421875 
Q 24.65625 -1.421875 15.125 8.703125 
Q 5.609375 18.84375 5.609375 36.375 
Q 5.609375 53.953125 15.125 64.078125 
Q 24.65625 74.21875 41.21875 74.21875 
Q 47.75 74.21875 53.53125 72.484375 
Q 59.328125 70.75 64.40625 67.28125 
" id="DejaVuSans-43"/>
      <path d="M 19.671875 64.796875 
L 19.671875 8.109375 
L 31.59375 8.109375 
Q 46.6875 8.109375 53.6875 14.9375 
Q 60.6875 21.78125 60.6875 36.53125 
Q 60.6875 51.171875 53.6875 57.984375 
Q 46.6875 64.796875 31.59375 64.796875 
z
M 9.8125 72.90625 
L 30.078125 72.90625 
Q 51.265625 72.90625 61.171875 64.09375 
Q 71.09375 55.28125 71.09375 36.53125 
Q 71.09375 17.671875 61.125 8.828125 
Q 51.171875 0 30.078125 0 
L 9.8125 0 
z
" id="DejaVuSans-44"/>
     </defs>
     <g transform="translate(317.04375 80.514687)scale(0.1 -0.1)">
      <use xlink:href="#DejaVuSans-55"/>
      <use x="73.193359" xlink:href="#DejaVuSans-43"/>
      <use x="143.017578" xlink:href="#DejaVuSans-44"/>
      <use x="220.019531" xlink:href="#DejaVuSans-20"/>
      <use x="251.806641" xlink:href="#DejaVuSans-45"/>
      <use x="314.990234" xlink:href="#DejaVuSans-56"/>
      <use x="383.382812" xlink:href="#DejaVuSans-4f"/>
      <use x="462.09375" xlink:href="#DejaVuSans-4f"/>
     </g>
    </g>
    <g id="line2d_27">
     <path d="M 289.04375 91.692813 
L 309.04375 91.692813 
" style="fill:none;stroke:#d62728;stroke-linecap:square;stroke-width:1.5;"/>
    </g>
    <g id="line2d_28"/>
    <g id="text_21">
     <!-- WF Gr EVOO -->
     <defs>
      <path d="M 3.328125 72.90625 
L 13.28125 72.90625 
L 28.609375 11.28125 
L 43.890625 72.90625 
L 54.984375 72.90625 
L 70.3125 11.28125 
L 85.59375 72.90625 
L 95.609375 72.90625 
L 77.296875 0 
L 64.890625 0 
L 49.515625 63.28125 
L 33.984375 0 
L 21.578125 0 
z
" id="DejaVuSans-57"/>
      <path d="M 59.515625 10.40625 
L 59.515625 29.984375 
L 43.40625 29.984375 
L 43.40625 38.09375 
L 69.28125 38.09375 
L 69.28125 6.78125 
Q 63.578125 2.734375 56.6875 0.65625 
Q 49.8125 -1.421875 42 -1.421875 
Q 24.90625 -1.421875 15.25 8.5625 
Q 5.609375 18.5625 5.609375 36.375 
Q 5.609375 54.25 15.25 64.234375 
Q 24.90625 74.21875 42 74.21875 
Q 49.125 74.21875 55.546875 72.453125 
Q 61.96875 70.703125 67.390625 67.28125 
L 67.390625 56.78125 
Q 61.921875 61.421875 55.765625 63.765625 
Q 49.609375 66.109375 42.828125 66.109375 
Q 29.4375 66.109375 22.71875 58.640625 
Q 16.015625 51.171875 16.015625 36.375 
Q 16.015625 21.625 22.71875 14.15625 
Q 29.4375 6.6875 42.828125 6.6875 
Q 48.046875 6.6875 52.140625 7.59375 
Q 56.25 8.5 59.515625 10.40625 
" id="DejaVuSans-47"/>
     </defs>
     <g transform="translate(317.04375 95.192813)scale(0.1 -0.1)">
      <use xlink:href="#DejaVuSans-57"/>
      <use x="98.876953" xlink:href="#DejaVuSans-46"/>
      <use x="156.396484" xlink:href="#DejaVuSans-20"/>
      <use x="188.183594" xlink:href="#DejaVuSans-47"/>
      <use x="265.673828" xlink:href="#DejaVuSans-72"/>
      <use x="306.787109" xlink:href="#DejaVuSans-20"/>
      <use x="338.574219" xlink:href="#DejaVuSans-45"/>
      <use x="401.757812" xlink:href="#DejaVuSans-56"/>
      <use x="470.150391" xlink:href="#DejaVuSans-4f"/>
      <use x="548.861328" xlink:href="#DejaVuSans-4f"/>
     </g>
    </g>
    <g id="line2d_29">
     <path d="M 289.04375 106.370937 
L 309.04375 106.370937 
" style="fill:none;stroke:#9467bd;stroke-linecap:square;stroke-width:1.5;"/>
    </g>
    <g id="line2d_30"/>
    <g id="text_22">
     <!-- Canola -->
     <g transform="translate(317.04375 109.870937)scale(0.1 -0.1)">
      <use xlink:href="#DejaVuSans-43"/>
      <use x="69.824219" xlink:href="#DejaVuSans-61"/>
      <use x="131.103516" xlink:href="#DejaVuSans-6e"/>
      <use x="194.482422" xlink:href="#DejaVuSans-6f"/>
      <use x="255.664062" xlink:href="#DejaVuSans-6c"/>
      <use x="283.447266" xlink:href="#DejaVuSans-61"/>
     </g>
    </g>
   </g>
  </g>
 </g>
 <defs>
  <clipPath id="p99e59ec53a">
   <rect height="217.44" width="334.8" x="54" y="34.56"/>
  </clipPath>
 </defs>
</svg>
